<?xml version="1.0" standalone="no"?>
<!DOCTYPE svg PUBLIC "-//W3C//DTD SVG 20010904//EN"
 "http://www.w3.org/TR/2001/REC-SVG-20010904/DTD/svg10.dtd">
<svg version="1.0" xmlns="http://www.w3.org/2000/svg"
 width="512.000000pt" height="512.000000pt" viewBox="0 0 512.000000 512.000000"
 preserveAspectRatio="xMidYMid meet">

<g transform="translate(0.000000,512.000000) scale(0.100000,-0.100000)"
fill="#000000" stroke="none">
<path d="M637 4669 c-282 -37 -519 -242 -609 -529 l-23 -75 0 -1505 0 -1505
23 -75 c92 -293 326 -492 623 -529 116 -15 3702 -15 3818 0 297 37 531 236
623 529 l23 75 0 1505 0 1505 -23 75 c-92 293 -326 492 -623 529 -103 13
-3730 13 -3832 0z m3858 -305 c132 -33 259 -152 304 -285 20 -60 21 -82 21
-420 l0 -358 -602 -4 c-669 -4 -645 -1 -795 -73 -432 -206 -554 -769 -246
-1136 94 -112 232 -201 378 -244 54 -16 123 -18 663 -21 l602 -4 0 -358 c0
-338 -1 -360 -21 -420 -29 -85 -99 -175 -177 -227 -119 -80 38 -74 -2062 -74
-2100 0 -1943 -6 -2062 74 -78 52 -148 142 -177 227 l-21 63 0 1456 0 1456 21
63 c44 129 165 245 293 282 57 16 181 18 1939 18 1699 1 1884 -1 1942 -15z
m325 -1804 l0 -440 -573 0 c-481 0 -582 2 -624 15 -165 49 -286 185 -315 355
-37 215 98 429 311 494 37 12 155 15 624 15 l577 1 0 -440z"/>
<path d="M3695 2700 c-98 -30 -131 -166 -59 -241 39 -41 90 -51 230 -47 105 2
127 6 150 24 50 37 66 68 66 124 0 56 -16 87 -66 124 -24 18 -44 21 -159 23
-73 1 -146 -2 -162 -7z"/>
</g>
</svg>
