<?xml version="1.0" standalone="no"?>
<!DOCTYPE svg PUBLIC "-//W3C//DTD SVG 20010904//EN"
 "http://www.w3.org/TR/2001/REC-SVG-20010904/DTD/svg10.dtd">
<svg version="1.0" xmlns="http://www.w3.org/2000/svg"
 width="512.000000pt" height="512.000000pt" viewBox="0 0 512.000000 512.000000"
 preserveAspectRatio="xMidYMid meet">

<g transform="translate(0.000000,512.000000) scale(0.100000,-0.100000)"
fill="#000000" stroke="none">
<path d="M637 4669 c-282 -37 -519 -242 -609 -529 l-23 -75 0 -1505 0 -1505
23 -75 c92 -293 326 -492 623 -529 116 -15 3702 -15 3818 0 295 36 526 231
622 524 22 67 23 85 27 457 l3 387 -753 4 c-837 3 -792 0 -945 73 -432 206
-554 769 -246 1136 94 112 231 201 378 244 55 16 127 18 813 21 l753 4 -3 387
c-4 372 -5 390 -27 457 -96 293 -327 488 -622 524 -103 13 -3730 13 -3832 0z"/>
<path d="M3619 2984 c-213 -65 -348 -279 -311 -494 29 -170 150 -306 315 -355
43 -13 159 -15 774 -15 l723 0 0 440 0 440 -727 -1 c-598 0 -736 -3 -774 -15z
m397 -300 c50 -37 66 -68 66 -124 0 -56 -16 -87 -66 -124 -23 -18 -45 -22
-150 -24 -68 -2 -139 1 -162 7 -106 28 -144 163 -68 242 40 42 72 48 221 46
115 -2 135 -5 159 -23z"/>
</g>
</svg>
